<svg width="97" height="35" viewBox="0 0 97 35" fill="none" xmlns="http://www.w3.org/2000/svg">
<g clip-path="url(#clip0_1_380)">
<path d="M29.186 7.99951L23.321 25.8065C23.1542 26.2929 22.8491 26.7201 22.443 27.0355C22.051 27.3381 21.5682 27.4992 21.073 27.4925C20.5682 27.5018 20.0751 27.3408 19.673 27.0355C19.2702 26.7243 18.9753 26.2944 18.83 25.8065L14.611 13.0575L10.4 25.8065C10.2332 26.2929 9.92807 26.7201 9.522 27.0355C9.12999 27.3381 8.64715 27.4992 8.152 27.4925C7.64725 27.5018 7.15408 27.3408 6.752 27.0355C6.34582 26.7256 6.04769 26.2956 5.9 25.8065L0 7.99951H3.337L8.148 22.5755L12.925 7.99951H16.262L21.073 22.5755L25.885 7.99951H29.186Z" fill="white"/>
<path d="M37.667 27.4927C36.3851 27.4984 35.1143 27.2538 33.926 26.7727C32.7417 26.2912 31.6711 25.5674 30.783 24.6477C29.88 23.7495 29.1639 22.6812 28.676 21.5047C28.1835 20.3192 27.9326 19.0474 27.938 17.7637C27.9322 16.479 28.1831 15.2061 28.676 14.0197C29.1642 12.8442 29.8803 11.777 30.783 10.8797C31.6735 9.95867 32.7432 9.22971 33.926 8.73767C35.1115 8.24516 36.3833 7.99426 37.667 7.99967C38.9955 7.97471 40.3135 8.23845 41.53 8.77267C42.6462 9.2814 43.6135 10.0673 44.34 11.0557C44.9792 11.8562 45.4079 12.804 45.587 13.8127C45.7454 14.7281 45.6052 15.6701 45.187 16.4997C44.7376 17.3942 44.0189 18.1252 43.132 18.5897C42.1533 19.1062 41.0595 19.3659 39.953 19.3447H31.275C31.456 20.055 31.7526 20.7307 32.153 21.3447C32.5443 21.9458 33.0307 22.4794 33.593 22.9247C34.1579 23.3719 34.7927 23.7226 35.472 23.9627C36.1786 24.2115 36.9229 24.3364 37.672 24.3317C39.3074 24.3507 40.889 23.7481 42.097 22.6457L44.238 24.9637C43.3431 25.7719 42.3072 26.4088 41.182 26.8427C40.0609 27.2756 38.8689 27.496 37.667 27.4927ZM39.95 16.1837C40.4636 16.1932 40.973 16.0908 41.443 15.8837C41.8255 15.7326 42.1437 15.4534 42.343 15.0937C42.4352 14.9091 42.486 14.7067 42.4921 14.5005C42.4981 14.2943 42.4592 14.0893 42.378 13.8997C42.2473 13.5607 42.0699 13.2416 41.851 12.9517C41.3493 12.3394 40.7076 11.8569 39.98 11.5452C39.2524 11.2334 38.4604 11.1015 37.671 11.1607C36.9204 11.1558 36.1751 11.2865 35.471 11.5467C34.7932 11.7971 34.1591 12.1528 33.592 12.6007C33.0297 13.0459 32.5433 13.5795 32.152 14.1807C31.7516 14.7947 31.455 15.4704 31.274 16.1807L39.95 16.1837Z" fill="white"/>
<path d="M62.801 10.8797C63.7015 11.7786 64.4152 12.8468 64.901 14.0227C65.3924 15.2085 65.6426 16.4802 65.637 17.7637C65.6424 19.0474 65.3915 20.3193 64.899 21.5047C64.4062 22.6892 63.6909 23.7684 62.792 24.6837C61.8822 25.5789 60.811 26.2935 59.635 26.7897C58.4446 27.2855 57.1665 27.5365 55.877 27.5277C54.2176 27.5406 52.5834 27.1215 51.135 26.3117V34.8327H47.974V14.9537C47.9622 13.9809 48.1593 13.0169 48.552 12.1267C48.9383 11.2712 49.5065 10.5102 50.217 9.89673C50.9846 9.2791 51.8572 8.80485 52.793 8.49673C53.8047 8.16215 54.8645 7.99593 55.93 8.00473C56.2107 8.00473 56.4913 8.01639 56.772 8.03973C57.0527 8.06306 57.333 8.09806 57.613 8.14473C59.5869 8.48825 61.4022 9.44527 62.801 10.8797ZM55.891 24.3667C56.7743 24.3733 57.6496 24.1991 58.463 23.8547C59.2477 23.5242 59.9608 23.0447 60.563 22.4427C61.1636 21.8401 61.6421 21.127 61.972 20.3427C62.3157 19.527 62.4896 18.6499 62.483 17.7647C62.4896 16.8796 62.3157 16.0024 61.972 15.1867C61.6421 14.4024 61.1636 13.6894 60.563 13.0867C59.9608 12.4848 59.2477 12.0053 58.463 11.6747C57.6496 11.3304 56.7743 11.1561 55.891 11.1627C54.5907 11.0949 53.3111 11.5098 52.298 12.3277C51.9148 12.6432 51.6102 13.0436 51.4083 13.4971C51.2065 13.9506 51.1129 14.4448 51.135 14.9407V22.3197C51.7533 22.9674 52.4962 23.4834 53.319 23.8367C54.1309 24.1878 55.0064 24.3682 55.891 24.3667Z" fill="white"/>
<path d="M67.929 27.4929V13.7199C67.9015 12.9426 68.0516 12.1693 68.3681 11.4588C68.6845 10.7483 69.1588 10.1194 69.755 9.6199C70.3961 9.08436 71.1342 8.67698 71.929 8.4199C72.8136 8.13254 73.7389 7.99036 74.669 7.9989H74.739C76.2682 7.98838 77.7723 8.38865 79.094 9.1579L77.514 11.8979C76.6724 11.4063 75.7136 11.1513 74.739 11.1599H74.637C74.0899 11.1543 73.5451 11.2311 73.021 11.3879C72.5711 11.5179 72.1527 11.7392 71.792 12.0379C71.5554 12.2477 71.3695 12.5084 71.2483 12.8005C71.127 13.0925 71.0736 13.4082 71.092 13.7239V27.4929H67.929Z" fill="white"/>
<path d="M87.157 27.4926C85.8751 27.4984 84.6043 27.2538 83.416 26.7726C82.2317 26.2912 81.1611 25.5673 80.273 24.6476C79.3532 23.7593 78.6294 22.6884 78.148 21.5036C77.6669 20.3154 77.4223 19.0446 77.428 17.7626C77.422 16.48 77.6666 15.2085 78.148 14.0196C78.6299 12.8363 79.3537 11.7668 80.273 10.8796C81.1635 9.95864 82.2332 9.22968 83.416 8.73764C84.6015 8.24513 85.8733 7.99423 87.157 7.99963C88.435 7.99314 89.7012 8.24413 90.88 8.73764C92.0637 9.23795 93.1376 9.96571 94.041 10.8796C94.9437 11.777 95.6599 12.8441 96.148 14.0196C96.6405 15.2051 96.8914 16.4769 96.886 17.7606C96.8914 19.0443 96.6405 20.3162 96.148 21.5016C95.6602 22.6782 94.9441 23.7464 94.041 24.6446C93.1401 25.5573 92.0653 26.2799 90.88 26.7696C89.6986 27.2528 88.4335 27.4985 87.157 27.4926ZM87.157 11.1606C86.2748 11.1543 85.4012 11.3338 84.593 11.6876C83.8138 12.0272 83.1049 12.5095 82.503 13.1096C81.9061 13.7096 81.4307 14.4193 81.103 15.1996C80.7606 16.0107 80.5874 16.8832 80.594 17.7636C80.5874 18.644 80.7606 19.5165 81.103 20.3276C81.4304 21.1087 81.9058 21.8191 82.503 22.4196C83.103 23.0166 83.8127 23.492 84.593 23.8196C85.4041 24.1621 86.2766 24.3353 87.157 24.3286C88.0374 24.3353 88.9099 24.1621 89.721 23.8196C90.5014 23.492 91.2111 23.0166 91.811 22.4196C92.408 21.8197 92.8834 21.11 93.211 20.3296C93.5535 19.5185 93.7267 18.646 93.72 17.7656C93.7267 16.8852 93.5535 16.0127 93.211 15.2016C92.8834 14.4213 92.408 13.7116 91.811 13.1116C91.2091 12.5115 90.5003 12.0292 89.721 11.6896C88.913 11.3352 88.0394 11.1549 87.157 11.1606Z" fill="white"/>
</g>
<defs>
<clipPath id="clip0_1_380">
<rect width="96.887" height="26.833" fill="white" transform="translate(0 8)"/>
</clipPath>
</defs>
</svg>
